<svg width="141" height="48" viewBox="0 0 141 48" fill="none" xmlns="http://www.w3.org/2000/svg">
<path d="M10.58 9.7C10.22 9.74 9.84 9.78 9.44 9.82C9.04 9.86 8.64 9.88 8.24 9.88C7.44 9.88 6.58 9.88 5.66 9.88C4.74 9.88 3.86 9.78 3.02 9.58C2.22 9.34 1.54 8.94 0.98 8.38C0.46 7.82 0.2 6.98 0.2 5.86C0.2 4.98 0.44 4.24 0.92 3.64C1.4 3.04 2.06 2.6 2.9 2.32C3.94 2 5.3 1.76 6.98 1.6C8.66 1.4 10.42 1.26 12.26 1.18C14.14 1.1 15.96 1.06 17.72 1.06C19.48 1.06 20.94 1.06 22.1 1.06C22.66 1.06 23.36 1.04 24.2 0.999996C25.04 0.959997 25.84 1.02 26.6 1.18C27.36 1.34 28 1.64 28.52 2.08C29.08 2.48 29.36 3.12 29.36 4C29.36 7.6 25.9 9.1 18.98 8.5C19.02 12.02 18.96 15.5 18.8 18.94C18.64 22.38 18.56 25.84 18.56 29.32C18.56 31.16 18.7 33 18.98 34.84C19.26 36.68 19.64 38.48 20.12 40.24C20.36 41.04 20.46 41.82 20.42 42.58C20.38 43.34 20.2 44.02 19.88 44.62C19.56 45.22 19.08 45.7 18.44 46.06C17.84 46.42 17.06 46.6 16.1 46.6C14.82 46.6 13.76 46.3 12.92 45.7C12.12 45.1 11.46 44.32 10.94 43.36C10.42 42.36 10.04 41.26 9.8 40.06C9.56 38.82 9.4 37.58 9.32 36.34C9.24 35.06 9.2 33.84 9.2 32.68C9.2 31.48 9.2 30.46 9.2 29.62C9.2 26.22 9.34 22.88 9.62 19.6C9.94 16.32 10.26 13.02 10.58 9.7ZM44.1542 19.36C44.3142 18.4 44.6942 17.64 45.2942 17.08C45.8942 16.52 46.5742 16.14 47.3342 15.94C48.0942 15.74 48.8942 15.72 49.7342 15.88C50.5742 16.04 51.3142 16.36 51.9542 16.84C52.6342 17.28 53.1542 17.88 53.5142 18.64C53.8742 19.36 53.9942 20.2 53.8742 21.16C53.6342 22.8 53.2742 24.44 52.7942 26.08C52.3542 27.68 51.9942 29.28 51.7142 30.88C51.4342 32.48 51.3342 34.08 51.4142 35.68C51.5342 37.28 52.0742 38.88 53.0342 40.48C53.3542 40.96 53.6142 41.42 53.8142 41.86C54.0542 42.3 54.1742 42.74 54.1742 43.18C54.1742 43.98 53.8742 44.66 53.2742 45.22C52.6742 45.74 51.9742 46 51.1742 46C50.1742 46 49.2942 45.72 48.5342 45.16C47.7742 44.6 47.1142 43.9 46.5542 43.06C45.9942 42.22 45.4942 41.34 45.0542 40.42C44.6542 39.46 44.2942 38.62 43.9742 37.9C43.4542 38.74 42.8742 39.66 42.2342 40.66C41.5942 41.66 40.8542 42.6 40.0142 43.48C39.2142 44.36 38.3342 45.1 37.3742 45.7C36.4142 46.26 35.3542 46.54 34.1942 46.54C32.7942 46.54 31.5942 46.18 30.5942 45.46C29.5942 44.7 28.7742 43.76 28.1342 42.64C27.5342 41.52 27.0742 40.3 26.7542 38.98C26.4742 37.62 26.3342 36.36 26.3342 35.2C26.3342 34.08 26.4142 32.86 26.5742 31.54C26.7742 30.18 27.0542 28.84 27.4142 27.52C27.8142 26.16 28.3142 24.84 28.9142 23.56C29.5142 22.28 30.2342 21.16 31.0742 20.2C31.9142 19.2 32.8742 18.42 33.9542 17.86C35.0742 17.26 36.3342 16.96 37.7342 16.96C38.4142 16.96 39.0342 17.04 39.5942 17.2C40.1542 17.32 40.6742 17.5 41.1542 17.74C41.6342 17.94 42.1142 18.18 42.5942 18.46C43.0742 18.74 43.5942 19.04 44.1542 19.36ZM38.5742 35.68C39.3342 34.6 39.9942 33.48 40.5542 32.32C41.1542 31.16 41.4542 30.18 41.4542 29.38C41.4542 28.66 41.2142 28 40.7342 27.4C40.2942 26.8 39.7342 26.4 39.0542 26.2C38.3742 25.96 37.6542 25.98 36.8942 26.26C36.1742 26.54 35.5542 27.2 35.0342 28.24C34.7142 28.92 34.4142 29.68 34.1342 30.52C33.8942 31.32 33.7142 32.14 33.5942 32.98C33.0742 36.62 33.2942 38.66 34.2542 39.1C35.2542 39.5 36.6942 38.36 38.5742 35.68ZM66.2844 34.72C65.4444 34.08 64.5044 33.4 63.4644 32.68C62.4244 31.96 61.4644 31.16 60.5844 30.28C59.7044 29.4 58.9644 28.42 58.3644 27.34C57.7644 26.26 57.4644 25.04 57.4644 23.68C57.4644 22 57.8444 20.38 58.6044 18.82C59.3644 17.26 60.3644 15.9 61.6044 14.74C62.8844 13.54 64.3244 12.6 65.9244 11.92C67.5244 11.2 69.1444 10.84 70.7844 10.84C71.5844 10.84 72.3244 10.92 73.0044 11.08C73.7244 11.2 74.3444 11.44 74.8644 11.8C75.4244 12.12 75.8444 12.58 76.1244 13.18C76.4444 13.78 76.6044 14.52 76.6044 15.4C76.6044 16.64 76.4444 17.58 76.1244 18.22C75.8044 18.86 75.3644 19.32 74.8044 19.6C74.2444 19.88 73.5444 20.04 72.7044 20.08C71.9044 20.08 71.0244 20.08 70.0644 20.08C69.3844 20.08 68.6844 20.16 67.9644 20.32C67.2444 20.48 66.6044 20.76 66.0444 21.16C65.4844 21.52 65.0244 22 64.6644 22.6C64.3044 23.16 64.1244 23.86 64.1244 24.7C64.1244 25.46 64.4244 26.18 65.0244 26.86C65.6244 27.5 66.3644 28.14 67.2444 28.78C68.1644 29.42 69.1444 30.1 70.1844 30.82C71.2244 31.54 72.1844 32.34 73.0644 33.22C73.9844 34.06 74.7444 35.02 75.3444 36.1C75.9444 37.18 76.2444 38.42 76.2444 39.82C76.2444 41.02 75.9844 42.12 75.4644 43.12C74.9444 44.08 74.2644 44.92 73.4244 45.64C72.5844 46.32 71.6244 46.84 70.5444 47.2C69.4644 47.6 68.3644 47.8 67.2444 47.8C66.1644 47.8 65.0244 47.7 63.8244 47.5C62.6644 47.3 61.5844 46.94 60.5844 46.42C59.5844 45.9 58.7444 45.22 58.0644 44.38C57.4244 43.54 57.1044 42.46 57.1044 41.14C57.1044 40.1 57.4244 39.2 58.0644 38.44C58.7444 37.64 59.6444 37.24 60.7644 37.24C61.6444 37.24 62.4844 37.4 63.2844 37.72C64.1244 38 64.9644 38.24 65.8044 38.44C66.6444 38.64 67.2844 38.66 67.7244 38.5C68.2044 38.3 68.4644 38 68.5044 37.6C68.5844 37.2 68.4244 36.74 68.0244 36.22C67.6644 35.7 67.0844 35.2 66.2844 34.72ZM89.3914 26.44C90.3114 25.44 91.1314 24.4 91.8514 23.32C92.5714 22.2 93.2314 21.1 93.8314 20.02C94.4714 18.94 95.0514 17.88 95.5714 16.84C96.1314 15.76 96.7114 14.74 97.3114 13.78C97.5114 13.46 97.7914 13.22 98.1514 13.06C98.5514 12.86 98.9514 12.76 99.3514 12.76C100.271 12.76 100.911 13.12 101.271 13.84C101.671 14.56 101.871 15.32 101.871 16.12C101.871 17.36 101.671 18.54 101.271 19.66C100.911 20.78 100.431 21.88 99.8314 22.96C99.2314 24 98.5514 25.02 97.7914 26.02C97.0714 26.98 96.3514 27.94 95.6314 28.9C97.2314 29.34 98.5514 30 99.5914 30.88C100.671 31.72 101.491 32.7 102.051 33.82C102.651 34.94 103.031 36.16 103.191 37.48C103.351 38.8 103.311 40.18 103.071 41.62C102.911 42.58 102.671 43.36 102.351 43.96C102.031 44.56 101.651 45.02 101.211 45.34C100.771 45.66 100.251 45.88 99.6514 46C99.0514 46.08 98.4114 46.12 97.7314 46.12C96.5714 46.12 95.7114 45.76 95.1514 45.04C94.6314 44.32 94.2514 43.46 94.0114 42.46C93.8114 41.42 93.6514 40.34 93.5314 39.22C93.4514 38.1 93.2914 37.14 93.0514 36.34C92.8114 35.5 92.4714 34.9 92.0314 34.54C91.5914 34.18 91.1514 34 90.7114 34C90.3114 34 89.9514 34.2 89.6314 34.6C89.3514 34.96 89.2114 35.48 89.2114 36.16C89.2114 37.12 89.3314 38.1 89.5714 39.1C89.8514 40.1 89.9914 41.12 89.9914 42.16C89.9914 42.64 89.8714 43.12 89.6314 43.6C89.3914 44.08 89.0714 44.52 88.6714 44.92C88.2714 45.28 87.8114 45.6 87.2914 45.88C86.8114 46.12 86.3114 46.24 85.7914 46.24C84.5914 46.24 83.5914 45.86 82.7914 45.1C82.0314 44.34 81.3914 43.36 80.8714 42.16C80.3914 40.92 80.0314 39.56 79.7914 38.08C79.5514 36.56 79.3914 35.06 79.3114 33.58C79.2314 32.06 79.1914 30.64 79.1914 29.32C79.1914 28 79.1914 26.92 79.1914 26.08C79.1914 25.44 79.2114 24.4 79.2514 22.96C79.3314 21.48 79.4514 19.86 79.6114 18.1C79.8114 16.34 80.0714 14.54 80.3914 12.7C80.7514 10.86 81.2114 9.2 81.7714 7.72C82.2914 6.4 83.0314 5.44 83.9914 4.84C84.9514 4.24 85.8914 3.98 86.8114 4.06C87.7714 4.14 88.5714 4.6 89.2114 5.44C89.8514 6.24 90.1114 7.38 89.9914 8.86C89.9114 10.3 89.7514 11.74 89.5114 13.18C89.2714 14.58 89.0314 16 88.7914 17.44C88.5514 18.84 88.3314 20.26 88.1314 21.7C87.9314 23.1 87.8314 24.54 87.8314 26.02C87.8314 26.98 87.9714 27.44 88.2514 27.4C88.5314 27.32 88.9114 27 89.3914 26.44ZM115.796 34.72C114.956 34.08 114.016 33.4 112.976 32.68C111.936 31.96 110.976 31.16 110.096 30.28C109.216 29.4 108.476 28.42 107.876 27.34C107.276 26.26 106.976 25.04 106.976 23.68C106.976 22 107.356 20.38 108.116 18.82C108.876 17.26 109.876 15.9 111.116 14.74C112.396 13.54 113.836 12.6 115.436 11.92C117.036 11.2 118.656 10.84 120.296 10.84C121.096 10.84 121.836 10.92 122.516 11.08C123.236 11.2 123.856 11.44 124.376 11.8C124.936 12.12 125.356 12.58 125.636 13.18C125.956 13.78 126.116 14.52 126.116 15.4C126.116 16.64 125.956 17.58 125.636 18.22C125.316 18.86 124.876 19.32 124.316 19.6C123.756 19.88 123.056 20.04 122.216 20.08C121.416 20.08 120.536 20.08 119.576 20.08C118.896 20.08 118.196 20.16 117.476 20.32C116.756 20.48 116.116 20.76 115.556 21.16C114.996 21.52 114.536 22 114.176 22.6C113.816 23.16 113.636 23.86 113.636 24.7C113.636 25.46 113.936 26.18 114.536 26.86C115.136 27.5 115.876 28.14 116.756 28.78C117.676 29.42 118.656 30.1 119.696 30.82C120.736 31.54 121.696 32.34 122.576 33.22C123.496 34.06 124.256 35.02 124.856 36.1C125.456 37.18 125.756 38.42 125.756 39.82C125.756 41.02 125.496 42.12 124.976 43.12C124.456 44.08 123.776 44.92 122.936 45.64C122.096 46.32 121.136 46.84 120.056 47.2C118.976 47.6 117.876 47.8 116.756 47.8C115.676 47.8 114.536 47.7 113.336 47.5C112.176 47.3 111.096 46.94 110.096 46.42C109.096 45.9 108.256 45.22 107.576 44.38C106.936 43.54 106.616 42.46 106.616 41.14C106.616 40.1 106.936 39.2 107.576 38.44C108.256 37.64 109.156 37.24 110.276 37.24C111.156 37.24 111.996 37.4 112.796 37.72C113.636 38 114.476 38.24 115.316 38.44C116.156 38.64 116.796 38.66 117.236 38.5C117.716 38.3 117.976 38 118.016 37.6C118.096 37.2 117.936 36.74 117.536 36.22C117.176 35.7 116.596 35.2 115.796 34.72ZM136.443 2.38C137.483 2.38 138.343 2.74 139.023 3.46C139.743 4.14 140.103 5 140.103 6.04C140.103 6.96 140.003 7.92 139.803 8.92C139.603 9.92 139.363 10.94 139.083 11.98C138.283 15.1 137.583 18.24 136.983 21.4C136.423 24.56 136.143 27.74 136.143 30.94C136.143 31.78 135.903 32.52 135.423 33.16C134.943 33.76 134.263 34.06 133.383 34.06C132.423 34.06 131.683 33.66 131.163 32.86C130.643 32.02 130.263 31.02 130.023 29.86C129.863 29.14 129.723 27.96 129.603 26.32C129.483 24.68 129.423 22.84 129.423 20.8C129.463 18.76 129.583 16.66 129.783 14.5C130.023 12.3 130.403 10.32 130.923 8.56C131.483 6.76 132.203 5.28 133.083 4.12C133.963 2.96 135.083 2.38 136.443 2.38ZM133.383 45.76C132.903 45.76 132.443 45.64 132.003 45.4C131.563 45.16 131.183 44.86 130.863 44.5C130.543 44.14 130.283 43.74 130.083 43.3C129.923 42.82 129.843 42.34 129.843 41.86C129.843 40.86 130.163 39.92 130.803 39.04C131.443 38.12 132.303 37.66 133.383 37.66C134.223 37.66 135.023 37.98 135.783 38.62C136.583 39.26 136.983 40 136.983 40.84C136.983 41.4 136.923 41.98 136.803 42.58C136.683 43.14 136.463 43.66 136.143 44.14C135.863 44.62 135.483 45.02 135.003 45.34C134.563 45.62 134.023 45.76 133.383 45.76Z" fill="white"/>
</svg>
